<svg width="189" height="43" viewBox="0 0 189 43" fill="none" xmlns="http://www.w3.org/2000/svg">
<g clip-path="url(#clip0_133_1048)">
<path d="M0 34.42C10.559 27.73 20.9896 21.1214 31.5611 14.4251C31.6363 15.9521 31.7021 17.307 31.7648 18.6619C31.9778 23.2429 32.1815 27.8239 32.4165 32.4018C32.4415 32.9181 32.3162 33.2122 31.8619 33.4969C27.0022 36.5572 22.1551 39.6394 17.3111 42.7215C16.9351 42.9593 16.625 43.1252 16.1424 42.8717C10.9287 40.14 5.70249 37.4365 0.479385 34.7235C0.363455 34.6641 0.256925 34.5827 0 34.4169L0 34.42Z" fill="#A6A6A6"/>
<path d="M38.4261 8.50488C27.9047 15.173 17.4585 21.791 6.87128 28.4998C6.73968 25.7337 6.61748 23.1647 6.49842 20.5988C6.38876 18.2019 6.28223 15.8019 6.16943 13.405C6.12557 12.4288 6.07543 11.4525 6.0253 10.4762C6.00024 9.98494 6.1381 9.70332 6.55795 9.44048C11.4395 6.35832 16.3023 3.25426 21.187 0.184618C21.4659 0.00938844 21.9829 -0.0688389 22.2555 0.0719703C22.3933 0.14081 22.5281 0.212779 22.6659 0.28162C27.7888 2.9038 32.8959 5.56353 38.0063 8.22013C38.1003 8.26707 38.1848 8.33591 38.4261 8.50488Z" fill="#797979"/>
<path d="M22.6659 0.28162L6.16943 13.405C6.12557 12.4288 6.07543 11.4525 6.0253 10.4762C6.00024 9.98494 6.1381 9.70332 6.55795 9.44048C11.4395 6.35832 16.3023 3.25426 21.187 0.184618C21.4659 0.00938844 21.9829 -0.0688389 22.2555 0.0719703C22.3933 0.14081 22.5281 0.21278 22.6659 0.28162Z" fill="#EA4B3F"/>
<path d="M50.6611 16.8564H45.98L45.109 19.003H41.9131L46.8009 7.9479H49.884L54.7876 19.003H51.529L50.6579 16.8564H50.6611ZM49.743 14.5503L48.3206 11.0113L46.8981 14.5503H49.7462H49.743Z" fill="#282727"/>
<path d="M65.6725 19.0061L65.6411 13.1453L62.793 17.9141H61.4019L58.5694 13.3018V19.003H55.6743V7.9479H58.253L62.1444 14.3281L65.9388 7.9479H68.5175L68.5488 19.003H65.6693L65.6725 19.0061Z" fill="#282727"/>
<path d="M80.7464 12.0408C80.7464 14.5534 78.8477 16.1148 75.8273 16.1148H73.8972V19.0061H70.7671V7.9479H75.8273C78.8477 7.9479 80.7464 9.51245 80.7464 12.0376V12.0408ZM77.5819 12.0408C77.5819 11.0144 76.9333 10.4136 75.6361 10.4136H73.8972V13.6522H75.6361C76.9333 13.6522 77.5819 13.0515 77.5819 12.0408Z" fill="#282727"/>
<path d="M86.4585 13.477C86.4585 10.1132 89.0371 7.72886 92.5464 7.72886C94.5861 7.72886 96.2311 8.47045 97.3058 9.81283L95.313 11.6121C94.6174 10.7735 93.7621 10.3166 92.703 10.3166C90.8858 10.3166 89.6199 11.5808 89.6199 13.477C89.6199 15.3732 90.8858 16.6374 92.703 16.6374C93.7621 16.6374 94.6174 16.1805 95.313 15.3419L97.3058 17.1412C96.2311 18.4836 94.5861 19.2251 92.5464 19.2251C89.034 19.2251 86.4585 16.8408 86.4585 13.477Z" fill="#282727"/>
<path d="M97.8916 13.477C97.8916 10.1602 100.502 7.72886 104.045 7.72886C107.589 7.72886 110.196 10.1602 110.196 13.477C110.196 16.7938 107.586 19.2251 104.045 19.2251C100.505 19.2251 97.8916 16.7938 97.8916 13.477ZM107.034 13.477C107.034 11.5651 105.722 10.3166 104.045 10.3166C102.369 10.3166 101.056 11.5651 101.056 13.477C101.056 15.3889 102.369 16.6374 104.045 16.6374C105.722 16.6374 107.034 15.3889 107.034 13.477Z" fill="#282727"/>
<path d="M122.378 7.9479V19.003H119.8L114.912 13.1109V19.003H111.844V7.9479H114.423L119.311 13.84V7.9479H122.378Z" fill="#282727"/>
<path d="M126.949 10.4293H123.55V7.95103H133.466V10.4293H130.083V19.0061H126.952V10.4293H126.949Z" fill="#282727"/>
<path d="M139.476 16.0679H137.768V19.0061H134.638V7.9479H139.698C142.719 7.9479 144.618 9.51245 144.618 12.0376C144.618 13.6648 143.828 14.8663 142.449 15.5266L144.837 18.9999H141.484L139.476 16.0616V16.0679ZM139.507 10.4136H137.768V13.6522H139.507C140.804 13.6522 141.453 13.0515 141.453 12.0408C141.453 11.0301 140.804 10.4136 139.507 10.4136Z" fill="#282727"/>
<path d="M153.757 16.8564H149.076L148.205 19.003H145.009L149.897 7.9479H152.98L157.884 19.003H154.625L153.754 16.8564H153.757ZM152.839 14.5503L151.417 11.0113L149.994 14.5503H152.842H152.839Z" fill="#282727"/>
<path d="M158.047 13.477C158.047 10.1132 160.626 7.72886 164.135 7.72886C166.174 7.72886 167.819 8.47045 168.894 9.81283L166.901 11.6121C166.206 10.7735 165.35 10.3166 164.291 10.3166C162.474 10.3166 161.208 11.5808 161.208 13.477C161.208 15.3732 162.474 16.6374 164.291 16.6374C165.35 16.6374 166.206 16.1805 166.901 15.3419L168.894 17.1412C167.819 18.4836 166.174 19.2251 164.135 19.2251C160.622 19.2251 158.047 16.8408 158.047 13.477Z" fill="#282727"/>
<path d="M172.55 10.4293H169.151V7.95103H179.068V10.4293H175.684V19.0061H172.554V10.4293H172.55Z" fill="#282727"/>
<path d="M179.431 18.0111L180.459 15.7049C181.44 16.3526 182.831 16.7938 184.112 16.7938C185.394 16.7938 185.914 16.4309 185.914 15.8927C185.914 14.1404 179.619 15.4202 179.619 11.3117C179.619 9.33721 181.233 7.72573 184.523 7.72573C185.961 7.72573 187.449 8.05741 188.539 8.68949L187.574 11.0113C186.515 10.4418 185.472 10.157 184.507 10.157C183.194 10.157 182.721 10.5982 182.721 11.1521C182.721 12.8418 189 11.5776 189 15.6549C189 17.5824 187.386 19.2251 184.097 19.2251C182.279 19.2251 180.475 18.737 179.431 18.0079V18.0111Z" fill="#282727"/>
<path d="M50.7364 28.6625C50.0314 29.3446 48.9536 29.6826 47.5092 29.6826H45.1248V34.8518H43.5049V22.47H47.506C48.9034 22.47 49.9687 22.808 50.6988 23.4838C51.4288 24.1597 51.7923 25.0296 51.7923 26.0966C51.7923 27.1637 51.4382 27.9835 50.7333 28.6625H50.7364ZM49.4988 27.7644C49.9249 27.3733 50.1379 26.8163 50.1379 26.0935C50.1379 24.5665 49.2606 23.803 47.506 23.803H45.1216V28.3496H47.506C48.4084 28.3496 49.0726 28.1556 49.4988 27.7644Z" fill="#282727"/>
<path d="M61.1515 34.855L58.2 29.7921H56.2449V34.855H54.625V22.4731H58.6261C59.563 22.4731 60.3557 22.6327 61.0011 22.9519C61.6466 23.2711 62.1291 23.7029 62.4518 24.2473C62.7714 24.7918 62.9312 25.4145 62.9312 26.1123C62.9312 26.9665 62.6837 27.7175 62.1918 28.3684C61.6999 29.0192 60.9604 29.451 59.9766 29.6638L63.0879 34.8518H61.1484L61.1515 34.855ZM56.2418 28.4966H58.6261C59.5035 28.4966 60.1614 28.2807 60.6001 27.8489C61.0387 27.4171 61.2581 26.8382 61.2581 26.1154C61.2581 25.3926 61.0419 24.8137 60.6095 24.4101C60.1771 24.0064 59.516 23.8061 58.6261 23.8061H56.2418V28.4966Z" fill="#282727"/>
<path d="M67.8753 22.4731V34.855H66.2554V22.4731H67.8753Z" fill="#282727"/>
<path d="M81.6959 22.4731L77.018 34.855H75.1506L70.4727 22.4731H72.1991L76.0937 33.1496L79.9883 22.4731H81.6959Z" fill="#282727"/>
<path d="M91.6222 32.1014H86.2142L85.2179 34.855H83.5103L87.9939 22.5451H89.8613L94.3262 34.855H92.6186L91.6222 32.1014ZM91.1585 30.7872L88.9182 24.5352L86.678 30.7872H91.1616H91.1585Z" fill="#282727"/>
<path d="M104.732 22.4731V23.7874H101.351V34.855H99.7309V23.7874H96.3345V22.4731H104.728H104.732Z" fill="#282727"/>
<path d="M109.159 23.7874V27.9272H113.677V29.2602H109.159V33.522H114.21V34.855H107.539V22.4575H114.21V23.7905H109.159V23.7874Z" fill="#282727"/>
<path d="M124.668 33.5407H129.008V34.855H123.048V22.4731H124.668V33.5407Z" fill="#282727"/>
<path d="M133.172 22.4731V34.855H131.552V22.4731H133.172Z" fill="#282727"/>
<path d="M149.321 22.5608V34.8518H147.701V25.6867L143.609 34.8518H142.471L138.361 25.6679V34.8518H136.741V22.5608H138.483L143.035 32.7209L147.588 22.5608H149.314H149.321Z" fill="#282727"/>
<path d="M154.497 22.4731V34.855H152.877V22.4731H154.497Z" fill="#282727"/>
<path d="M165.704 22.4731V23.7874H162.323V34.855H160.704V23.7874H157.307V22.4731H165.704Z" fill="#282727"/>
<path d="M170.132 23.7874V27.9272H174.65V29.2602H170.132V33.522H175.182V34.855H168.512V22.4575H175.182V23.7905H170.132V23.7874Z" fill="#282727"/>
<path d="M185.829 23.2273C186.819 23.731 187.577 24.4507 188.107 25.3863C188.633 26.3219 188.9 27.4234 188.9 28.6907C188.9 29.9579 188.636 31.0562 188.107 31.9856C187.581 32.9149 186.819 33.6252 185.829 34.1165C184.839 34.6078 183.667 34.855 182.317 34.855H178.457V22.4731H182.317C183.667 22.4731 184.839 22.7235 185.829 23.2273ZM185.979 32.2516C186.822 31.4036 187.242 30.2177 187.242 28.6907C187.242 27.1637 186.819 25.9496 185.97 25.0859C185.121 24.2223 183.905 23.7905 182.314 23.7905H180.073V33.5251H182.314C183.915 33.5251 185.137 33.1027 185.976 32.2547L185.979 32.2516Z" fill="#282727"/>
</g>
<defs>
<clipPath id="clip0_133_1048">
<rect width="189" height="43" fill="white"/>
</clipPath>
</defs>
</svg>
