<svg width="53" height="53" viewBox="0 0 53 53" fill="none" xmlns="http://www.w3.org/2000/svg">
<path d="M7 39.4207C17.559 32.7307 27.9896 26.122 38.5611 19.4258C38.6363 20.9528 38.7021 22.3077 38.7648 23.6626C38.9778 28.2436 39.1815 32.8245 39.4165 37.4024C39.4415 37.9187 39.3162 38.2128 38.8619 38.4976C34.0022 41.5578 29.1551 44.64 24.3111 47.7222C23.9351 47.96 23.625 48.1258 23.1424 47.8724C17.9287 45.1407 12.7025 42.4371 7.47939 39.7242C7.36346 39.6647 7.25693 39.5834 7 39.4175L7 39.4207Z" fill="#A6A6A6"/>
<path d="M45.4261 13.5055C34.9047 20.1736 24.4585 26.7916 13.8713 33.5004C13.7397 30.7343 13.6175 28.1653 13.4984 25.5995C13.3888 23.2026 13.2822 20.8026 13.1694 18.4057C13.1256 17.4294 13.0754 16.4531 13.0253 15.4768C13.0002 14.9856 13.1381 14.704 13.558 14.4411C18.4395 11.359 23.3023 8.2549 28.187 5.18526C28.4659 5.01003 28.9829 4.9318 29.2555 5.07261C29.3933 5.14145 29.5281 5.21342 29.6659 5.28226C34.7888 7.90444 39.8959 10.5642 45.0063 13.2208C45.1003 13.2677 45.1848 13.3365 45.4261 13.5055Z" fill="#797979"/>
<path d="M29.6659 5.28226L13.1694 18.4057C13.1256 17.4294 13.0754 16.4531 13.0253 15.4768C13.0002 14.9856 13.1381 14.704 13.558 14.4411C18.4395 11.359 23.3023 8.2549 28.187 5.18526C28.4659 5.01003 28.9829 4.9318 29.2555 5.07261C29.3933 5.14145 29.5281 5.21342 29.6659 5.28226Z" fill="#EA4B3F"/>
</svg>
