<svg width="42" height="41" viewBox="0 0 42 41" fill="none" xmlns="http://www.w3.org/2000/svg">
<rect x="1" y="0.5" width="40" height="40" fill="white"/>
<rect x="1" y="2.5" width="40" height="6.14173" stroke="#FF3C3C" stroke-width="1.5"/>
<rect x="2.33862" y="8.64185" width="37.2441" height="30.5512" stroke="#FF3C3C" stroke-width="1.5"/>
<path d="M2.33862 8.64185H9.81894V13.0907C9.81894 15.1563 8.14441 16.8308 6.07878 16.8308V16.8308C4.01315 16.8308 2.33862 15.1563 2.33862 13.0907V8.64185Z" stroke="#FF3C3C" stroke-width="1.5"/>
<path d="M9.81885 8.64185H17.2204V13.13C17.2204 15.1739 15.5635 16.8308 13.5196 16.8308V16.8308C11.4757 16.8308 9.81885 15.1739 9.81885 13.13V8.64185Z" stroke="#FF3C3C" stroke-width="1.5"/>
<path d="M17.2205 8.64185H24.7008V13.0907C24.7008 15.1563 23.0262 16.8308 20.9606 16.8308V16.8308C18.895 16.8308 17.2205 15.1563 17.2205 13.0907V8.64185Z" stroke="#FF3C3C" stroke-width="1.5"/>
<path d="M24.7007 8.64185H32.1023V13.13C32.1023 15.1739 30.4454 16.8308 28.4015 16.8308V16.8308C26.3576 16.8308 24.7007 15.1739 24.7007 13.13V8.64185Z" stroke="#FF3C3C" stroke-width="1.5"/>
<path d="M32.1023 8.64185H39.5826V13.0907C39.5826 15.1563 37.9081 16.8308 35.8425 16.8308V16.8308C33.7768 16.8308 32.1023 15.1563 32.1023 13.0907V8.64185Z" stroke="#FF3C3C" stroke-width="1.5"/>
<path d="M2 31.5L40 31.5" stroke="#FF3C3C" stroke-width="1.5"/>
<rect x="15.8818" y="20.7676" width="10" height="18.4252" fill="white" stroke="#FF3C3C" stroke-width="1.5"/>
</svg>
