<svg width="41" height="41" viewBox="0 0 41 41" fill="none" xmlns="http://www.w3.org/2000/svg">
<rect y="0.5" width="40" height="40" fill="white"/>
<rect x="1.42993" y="9.55591" width="10.9646" height="22.0694" stroke="#FF3C3C" stroke-width="1.5"/>
<rect x="28.1724" y="9.55591" width="10.9646" height="22.0694" stroke="#FF3C3C" stroke-width="1.5"/>
<rect x="14.801" y="5.25" width="10.9646" height="26.3754" stroke="#FF3C3C" stroke-width="1.5"/>
<path d="M4.07935 13.6782H10.6516" stroke="#FF3C3C" stroke-width="1.5"/>
<path d="M16.9973 13.7917H23.5696" stroke="#FF3C3C" stroke-width="1.5"/>
<path d="M29.915 13.5649H36.4873" stroke="#FF3C3C" stroke-width="1.5"/>
<path d="M16.9973 8.80591H23.5696" stroke="#FF3C3C" stroke-width="1.5"/>
<path d="M4.07935 18.5508H10.6516" stroke="#FF3C3C" stroke-width="1.5"/>
<path d="M16.9973 18.6643H23.5696" stroke="#FF3C3C" stroke-width="1.5"/>
<path d="M29.915 18.4375H36.4873" stroke="#FF3C3C" stroke-width="1.5"/>
<path d="M4.07935 23.4233H10.6516" stroke="#FF3C3C" stroke-width="1.5"/>
<path d="M16.9973 23.5369H23.5696" stroke="#FF3C3C" stroke-width="1.5"/>
<path d="M29.915 23.3101H36.4873" stroke="#FF3C3C" stroke-width="1.5"/>
<ellipse cx="4.98586" cy="27.3897" rx="0.906516" ry="0.906516" fill="#FF3C3C"/>
<ellipse cx="32.408" cy="27.3897" rx="0.906516" ry="0.906516" fill="#FF3C3C"/>
<ellipse cx="16.9973" cy="27.3897" rx="0.906516" ry="0.906516" fill="#FF3C3C"/>
<ellipse cx="8.15871" cy="27.3897" rx="0.906516" ry="0.906516" fill="#FF3C3C"/>
<ellipse cx="35.5811" cy="27.3897" rx="0.906516" ry="0.906516" fill="#FF3C3C"/>
<ellipse cx="20.1699" cy="27.3897" rx="0.906516" ry="0.906516" fill="#FF3C3C"/>
<ellipse cx="23.343" cy="27.3897" rx="0.906516" ry="0.906516" fill="#FF3C3C"/>
<path d="M0 36.5681H40" stroke="#FF3C3C" stroke-width="1.5"/>
<path d="M2.71948 32.4888V36.6814" stroke="#FF3C3C" stroke-width="1.5"/>
<path d="M37.6206 32.6021V36.7947" stroke="#FF3C3C" stroke-width="1.5"/>
<path d="M11.5583 32.6021V36.7947" stroke="#FF3C3C" stroke-width="1.5"/>
<path d="M25.156 32.6021V36.7947" stroke="#FF3C3C" stroke-width="1.5"/>
<path d="M15.1843 32.6021V36.7947" stroke="#FF3C3C" stroke-width="1.5"/>
<path d="M28.782 32.6021V36.7947" stroke="#FF3C3C" stroke-width="1.5"/>
</svg>
