<svg width="40" height="41" viewBox="0 0 40 41" fill="none" xmlns="http://www.w3.org/2000/svg">
<rect y="0.5" width="40" height="40" fill="white"/>
<path d="M39.3194 34.7097V26.3402C39.5375 26.3294 39.7391 26.2189 39.8636 26.038C39.9946 25.8475 40.0236 25.6047 39.941 25.3887L38.6018 21.8889C38.4977 21.617 38.2368 21.4374 37.9456 21.4374H28.0351V7.40889C28.0351 7.02092 27.7206 6.70637 27.3326 6.70637H18.2254C17.8375 6.70637 17.5229 7.02092 17.5229 7.40889V14.4031H14.0739V5.20252C14.0739 4.81456 13.7594 4.5 13.3714 4.5H10.5606C10.1726 4.5 9.85809 4.81456 9.85809 5.20252V14.4031H8.45225V5.20252C8.45225 4.81456 8.1377 4.5 7.74973 4.5H4.93884C4.55087 4.5 4.23631 4.81456 4.23631 5.20252V14.4031H2.07464C1.78353 14.4031 1.52255 14.5826 1.41849 14.8545L0.0792975 18.3543C-0.00333699 18.5703 0.0256422 18.8131 0.156663 19.0036C0.281537 19.185 0.483864 19.2956 0.702525 19.3059V34.7086C0.314555 34.7086 0 35.0231 0 35.4111C0 35.7991 0.314555 36.1136 0.702525 36.1136H1.40505H18.2254H27.4351H38.6169H39.2975C39.6854 36.1136 40 35.7991 40 35.4111C40 35.0305 39.6971 34.7214 39.3194 34.7097ZM11.2631 8.72612H12.6689V14.3756H11.2631V8.72612ZM12.6689 5.90505V7.32108H11.2631V5.90505H12.6689ZM5.64136 8.72612H7.0472V14.3756H5.64136V8.72612ZM7.0472 5.90505V7.32108H5.64136V5.90505H7.0472ZM37.4623 22.8425L38.2639 24.9372H37.9457H28.0351V22.8425H37.4623ZM18.9279 8.11142H26.6301V34.7086H18.9279V18.5907V8.11142ZM11.9338 19.2932V23.4645H7.69669V19.2932H11.9338ZM17.5229 19.2932V23.4645H13.3388V19.2932H17.5229ZM17.5229 29.1066H13.3388V24.8695H17.5229V29.1066ZM6.29164 23.4645H2.10757V19.3062C2.14498 19.3045 2.18187 19.3006 2.21761 19.2932H6.29164V23.4645ZM2.10757 24.8695H6.29164V29.1066H2.10757V24.8695ZM7.69669 24.8695H11.9338V29.1066H7.69669V24.8695ZM11.9338 30.5117V34.7086H7.69669V30.5117H11.9338ZM13.3388 30.5117H17.5229V34.7086H13.3388V30.5117ZM2.55807 15.8081H17.5229V17.8883H12.7683C12.7254 17.8801 12.6814 17.8755 12.6362 17.8755C12.591 17.8755 12.547 17.8801 12.5042 17.8883H7.12615C7.08329 17.8801 7.0393 17.8755 6.99407 17.8755C6.94885 17.8755 6.90485 17.8801 6.862 17.8883H1.76211L2.55807 15.8081ZM2.10757 30.5117H6.29164V34.7086H2.10757V30.5117ZM35.0823 34.7086H30.8525V31.2216H35.0823V34.7086ZM36.4874 34.7086V30.5191C36.4874 30.1311 36.1728 29.8165 35.7849 29.8165H30.15C29.762 29.8165 29.4475 30.1311 29.4475 30.5191V34.7086H28.1376V26.3423H37.9144V34.7086H36.4874Z" fill="#FF3C3C"/>
<path d="M21.7963 12.9962C22.1842 12.9962 22.4988 12.6816 22.4988 12.2936V10.9105C22.4988 10.5226 22.1842 10.208 21.7963 10.208C21.4083 10.208 21.0938 10.5226 21.0938 10.9105V12.2936C21.0938 12.6816 21.4083 12.9962 21.7963 12.9962Z" fill="#FF3C3C"/>
<path d="M23.8641 12.9962C24.2521 12.9962 24.5667 12.6816 24.5667 12.2936V10.9105C24.5667 10.5226 24.2521 10.208 23.8641 10.208C23.4762 10.208 23.1616 10.5226 23.1616 10.9105V12.2936C23.1616 12.6816 23.4762 12.9962 23.8641 12.9962Z" fill="#FF3C3C"/>
<path d="M21.7963 17.9568C22.1842 17.9568 22.4988 17.6423 22.4988 17.2543V15.8712C22.4988 15.4833 22.1842 15.1687 21.7963 15.1687C21.4083 15.1687 21.0938 15.4833 21.0938 15.8712V17.2543C21.0938 17.6423 21.4083 17.9568 21.7963 17.9568Z" fill="#FF3C3C"/>
<path d="M23.8641 17.9568C24.2521 17.9568 24.5667 17.6423 24.5667 17.2543V15.8712C24.5667 15.4833 24.2521 15.1687 23.8641 15.1687C23.4762 15.1687 23.1616 15.4833 23.1616 15.8712V17.2543C23.1616 17.6423 23.4762 17.9568 23.8641 17.9568Z" fill="#FF3C3C"/>
<path d="M21.7963 22.8423C22.1842 22.8423 22.4988 22.5278 22.4988 22.1398V20.7567C22.4988 20.3688 22.1842 20.0542 21.7963 20.0542C21.4083 20.0542 21.0938 20.3688 21.0938 20.7567V22.1398C21.0938 22.5278 21.4083 22.8423 21.7963 22.8423Z" fill="#FF3C3C"/>
<path d="M23.8641 22.8423C24.2521 22.8423 24.5667 22.5278 24.5667 22.1398V20.7567C24.5667 20.3688 24.2521 20.0542 23.8641 20.0542C23.4762 20.0542 23.1616 20.3688 23.1616 20.7567V22.1398C23.1616 22.5278 23.4762 22.8423 23.8641 22.8423Z" fill="#FF3C3C"/>
<path d="M21.7963 27.8033C22.1842 27.8033 22.4988 27.4887 22.4988 27.1008V25.7177C22.4988 25.3297 22.1842 25.0151 21.7963 25.0151C21.4083 25.0151 21.0938 25.3297 21.0938 25.7177V27.1008C21.0938 27.4887 21.4083 27.8033 21.7963 27.8033Z" fill="#FF3C3C"/>
<path d="M23.8641 27.8033C24.2521 27.8033 24.5667 27.4887 24.5667 27.1008V25.7177C24.5667 25.3297 24.2521 25.0151 23.8641 25.0151C23.4762 25.0151 23.1616 25.3297 23.1616 25.7177V27.1008C23.1616 27.4887 23.4762 27.8033 23.8641 27.8033Z" fill="#FF3C3C"/>
<path d="M21.7963 32.6915C22.1842 32.6915 22.4988 32.3769 22.4988 31.9889V30.6058C22.4988 30.2179 22.1842 29.9033 21.7963 29.9033C21.4083 29.9033 21.0938 30.2179 21.0938 30.6058V31.9889C21.0938 32.377 21.4083 32.6915 21.7963 32.6915Z" fill="#FF3C3C"/>
<path d="M23.8641 32.6915C24.2521 32.6915 24.5667 32.3769 24.5667 31.9889V30.6058C24.5667 30.2179 24.2521 29.9033 23.8641 29.9033C23.4762 29.9033 23.1616 30.2179 23.1616 30.6058V31.9889C23.1616 32.377 23.4762 32.6915 23.8641 32.6915Z" fill="#FF3C3C"/>
</svg>
