<svg width="40" height="41" viewBox="0 0 40 41" fill="none" xmlns="http://www.w3.org/2000/svg">
<rect y="0.5" width="40" height="40" fill="white"/>
<path d="M35.5382 17.376C35.7326 16.5186 35.8326 15.6521 35.8326 14.7885C35.8326 9.0192 31.3134 4.5 25.5443 4.5C22.9512 4.5 20.3893 5.47648 18.4166 7.16887C16.4436 5.47626 13.8816 4.5 11.2885 4.5C5.5193 4.49989 1 9.0192 1 14.7884C1 21.7623 5.85546 26.0248 13.2051 32.477C13.8332 33.0285 14.4816 33.5976 15.1487 34.1875C15.1533 34.1917 15.1579 34.1957 15.1625 34.1997L17.3815 36.1164C17.6789 36.3733 18.0478 36.5016 18.4168 36.5016C18.7858 36.5016 19.1548 36.3731 19.4522 36.1163L21.4338 34.4043C23.2577 35.7231 25.4967 36.5016 27.9145 36.5016C34.027 36.5016 39 31.5286 39 25.4161C38.9999 22.2543 37.6689 19.3975 35.5382 17.376ZM18.4167 32.8253L17.24 31.8087C16.5724 31.2183 15.9235 30.6487 15.2947 30.0968C8.35572 24.0051 4.16729 20.3282 4.16729 14.7884C4.16729 10.7286 7.2288 7.66719 11.2885 7.66719C13.4977 7.66719 15.7657 8.72612 17.2077 10.4309C17.5087 10.7867 17.9509 10.9918 18.4168 10.9918C18.8828 10.9918 19.3252 10.7865 19.626 10.4306C21.0672 8.72612 23.335 7.66729 25.5442 7.66729C29.6038 7.66729 32.6652 10.7288 32.6652 14.7885C32.6652 14.9908 32.6572 15.1914 32.6429 15.3914C31.2078 14.7117 29.6049 14.3307 27.9143 14.3307C21.8017 14.3307 16.8288 19.3037 16.8288 25.4163C16.8288 27.9667 17.695 30.3183 19.1481 32.1934L18.4167 32.8253ZM27.9144 33.3345C23.5483 33.3345 19.9961 29.7824 19.9961 25.4163C19.9961 21.0502 23.5483 17.498 27.9144 17.498C32.2805 17.498 35.8326 21.0502 35.8326 25.4163C35.8326 29.7824 32.2805 33.3345 27.9144 33.3345Z" stroke="#FF3C3C" stroke-width="1.5"/>
<path d="M30.1728 21.9736L26.5417 25.6047L25.5499 24.613C24.9315 23.9946 23.9288 23.9946 23.3103 24.613C22.6918 25.2315 22.6918 26.2342 23.3103 26.8526L25.4218 28.9641C25.731 29.2734 26.1364 29.428 26.5416 29.428C26.9469 29.428 27.3522 29.2735 27.6613 28.9641L32.4122 24.2132C33.0307 23.5947 33.0307 22.5921 32.4122 21.9736C31.794 21.3551 30.7912 21.3551 30.1728 21.9736Z" fill="#FF3C3C"/>
</svg>
