<svg width="39" height="43" viewBox="0 0 39 43" fill="none" xmlns="http://www.w3.org/2000/svg">
<rect x="1" y="1.5" width="18.75" height="4.45312" rx="2.22656" stroke="#FF3C3C" stroke-width="1.5"/>
<path d="M2.79688 5.95312H18.1094V33.8438C18.1094 38.0722 14.6816 41.5 10.4531 41.5V41.5C6.2247 41.5 2.79688 38.0722 2.79688 33.8437V5.95312Z" stroke="#FF3C3C" stroke-width="1.5"/>
<ellipse cx="10.4922" cy="23.0234" rx="5.97656" ry="10.9766" stroke="#FF3C3C" stroke-width="1.5"/>
<path d="M10.4141 12.3594V33.8438" stroke="#FF3C3C" stroke-width="1.5"/>
<path d="M5.45312 17.125L10.4531 22.0469" stroke="#FF3C3C" stroke-width="1.5"/>
<path d="M15.375 16.7344L10.375 21.5" stroke="#FF3C3C" stroke-width="1.5"/>
<path d="M4.51562 22.5938L10.4531 29.1563" stroke="#FF3C3C" stroke-width="1.5"/>
<path d="M16.4688 22.5938L10.375 28.2188" stroke="#FF3C3C" stroke-width="1.5"/>
<path d="M18.2656 13.5312H22.0156" stroke="#FF3C3C" stroke-width="1.5"/>
<path d="M25.7657 10.172C26.9698 10.1575 28.0856 10.8017 28.675 11.8517V11.8517V11.8517C29.2896 12.8871 29.2896 14.1756 28.675 15.211V15.211V15.211C28.0856 16.261 26.9698 16.9052 25.7657 16.8907V16.8907V16.8907C24.5617 16.9052 23.4459 16.261 22.8564 15.211V15.211V15.211C22.2418 14.1756 22.2418 12.8871 22.8564 11.8517V11.8517V11.8517C23.4459 10.8017 24.5617 10.1575 25.7657 10.172V10.172V10.172Z" stroke="#FF3C3C" stroke-width="1.5"/>
<path d="M25.7892 26.6798C26.9932 26.6653 28.109 27.3095 28.6985 28.3595V28.3595V28.3595C29.313 29.3949 29.313 30.6834 28.6985 31.7188V31.7188V31.7188C28.109 32.7688 26.9932 33.413 25.7892 33.3985V33.3985V33.3985C24.5851 33.413 23.4693 32.7688 22.8799 31.7188V31.7188V31.7188C22.2653 30.6834 22.2653 29.3949 22.8799 28.3595V28.3595V28.3595C23.4693 27.3095 24.5851 26.6653 25.7892 26.6798V26.6798V26.6798Z" stroke="#FF3C3C" stroke-width="1.5"/>
<path d="M33.0548 22.3829C34.2588 22.3684 35.3746 23.0126 35.9641 24.0626V24.0626V24.0626C36.5787 25.0981 36.5787 26.3865 35.9641 27.422V27.422V27.422C35.3746 28.4719 34.2588 29.1162 33.0548 29.1017V29.1017V29.1017C31.8508 29.1162 30.7349 28.4719 30.1455 27.422V27.422V27.422C29.5309 26.3865 29.5309 25.0981 30.1455 24.0626V24.0626V24.0626C30.7349 23.0126 31.8508 22.3684 33.0548 22.3829V22.3829V22.3829Z" stroke="#FF3C3C" stroke-width="1.5"/>
<path d="M29.5156 13.7656C30.136 13.7656 33.5832 13.7656 35.2292 13.7656L37.7188 17.8097L34.8619 22.3594" stroke="#FF3C3C" stroke-width="1.5"/>
<path d="M22.1416 21.4031C21.9587 21.0315 21.5091 20.8785 21.1375 21.0615C20.7659 21.2444 20.6129 21.694 20.7959 22.0656L22.1416 21.4031ZM20.7959 22.0656L23.2959 27.1438L24.6416 26.4812L22.1416 21.4031L20.7959 22.0656Z" fill="#FF3C3C"/>
</svg>
