<svg width="40" height="43" viewBox="0 0 40 43" fill="none" xmlns="http://www.w3.org/2000/svg">
<rect y="1.5" width="40" height="40" fill="white"/>
<path d="M18.5298 8.22159L8.8396 5.54983C5.53872 4.62656 2.13978 6.56297 1.21652 9.87203C0.325931 13.1729 2.26234 16.6045 5.56323 17.4951L15.2453 20.1587L18.5298 8.22159Z" stroke="#FF3C3C" stroke-width="1.5"/>
<path d="M35.4508 13.3036C38.5638 11.8411 39.8956 8.15621 38.433 5.07593C36.9705 1.96296 33.2856 0.63117 30.2053 2.09369L21.0952 6.31785L26.3325 17.5605L35.4508 13.3036Z" stroke="#FF3C3C" stroke-width="1.5"/>
<path d="M23.8327 26.2539C24.3474 22.136 25.6384 17.871 25.6384 17.8056C25.7691 17.3644 25.5403 16.915 25.0991 16.7924C24.6579 16.6617 24.2085 16.8905 24.086 17.3317C24.0206 17.585 22.7542 21.7765 22.2149 25.9679C20.3766 22.283 17.5496 19.1047 17.3862 18.9168C17.1002 18.5655 16.5609 18.5655 16.2423 18.8514C15.891 19.1374 15.891 19.6766 16.1769 19.9953C16.2096 20.028 18.8405 22.9775 20.589 26.3438C21.692 26.2784 22.7542 26.2621 23.7918 26.2784C23.13 28.0841 23.7673 30.8539 23.7673 31.2624C23.7183 32.0631 23.0402 32.0876 23.0402 32.0876C22.4029 32.2265 22.1823 31.4503 22.1823 31.4503C22.1169 31.0663 21.9698 28.0106 20.6299 26.3683C14.216 26.6869 9.41992 28.0514 9.41992 29.7019C9.41992 31.5729 15.8011 33.1008 23.6775 33.1008C31.5538 33.1008 37.935 31.5729 37.935 29.7019C37.8941 27.8145 31.6274 26.2948 23.8327 26.2539Z" fill="#FF3C3C"/>
<path d="M23.6364 34.7022C15.7601 34.7022 9.37891 33.1743 9.37891 31.3032V38.1011C9.37891 39.9721 15.7601 41.5 23.6364 41.5C31.5128 41.5 37.894 39.9721 37.894 38.1011V31.3032C37.894 33.1824 31.5128 34.7022 23.6364 34.7022Z" stroke="#FF3C3C" stroke-width="1.5"/>
</svg>
