<svg width="16" height="16" viewBox="0 0 16 16" fill="none" xmlns="http://www.w3.org/2000/svg">
<path fill-rule="evenodd" clip-rule="evenodd" d="M11.3384 13.8525C10.4365 13.8194 7.88244 13.4667 5.20777 10.792C2.53307 8.11734 2.18044 5.56327 2.14726 4.66138C2.09669 3.28726 3.14932 1.9521 4.36581 1.43075C4.65126 1.30841 4.997 1.3308 5.27031 1.53017C6.27099 2.2601 6.96237 3.3637 7.55591 4.23201C7.82404 4.62425 7.75995 5.1598 7.39574 5.47508L6.17454 6.38204C6.05349 6.47192 6.01325 6.63528 6.08585 6.76741C6.36215 7.27038 6.85439 8.01882 7.41765 8.58213C7.98158 9.146 8.76539 9.67 9.30291 9.97744C9.4423 10.0572 9.61761 10.011 9.70574 9.87673L10.5002 8.66662C10.8048 8.26117 11.3737 8.1726 11.7873 8.45883C12.6682 9.06851 13.6958 9.74742 14.4483 10.711C14.662 10.9848 14.6938 11.3428 14.5663 11.6404C14.0426 12.8625 12.7172 13.9033 11.3384 13.8525Z" fill="#09244B"/>
</svg>
