<svg width="31" height="31" viewBox="0 0 31 31" fill="none" xmlns="http://www.w3.org/2000/svg">
<path d="M28.4839 2.62805L28.099 2.25262C26.7518 0.750872 24.6347 0 22.7101 0C20.7855 0 18.6685 0.750872 17.1288 2.25262L2.3095 16.7069C-0.769835 19.7104 -0.769835 24.4033 2.3095 27.4068L2.69442 27.7823C4.04163 29.284 6.15868 30.0349 8.08327 30.0349C10.0079 30.0349 12.1249 29.284 13.6646 27.7823L28.6764 13.1403C31.5632 10.3245 31.5632 5.44382 28.4839 2.62805ZM27.1367 12.0139L19.6308 19.3349L12.8947 12.5771L5.5813 19.7104C3.46426 21.7753 3.46426 24.4033 3.65672 26.2805C1.34721 24.0279 1.34721 20.4613 3.65672 18.2086L18.6685 3.56664C19.6308 2.44033 21.1705 1.87718 22.7101 1.87718C24.2498 1.87718 25.7895 2.44033 26.9442 3.56664L27.3291 3.94208C28.2914 4.88067 28.8688 6.38241 28.8688 7.88415C28.8688 9.3859 28.2914 10.8876 27.1367 12.0139Z" fill="#FF3C3C"/>
</svg>
