<svg width="13" height="13" viewBox="0 0 13 13" fill="none" xmlns="http://www.w3.org/2000/svg">
<path d="M6.078 13C2.7212 13 0 10.2788 0 6.922C0 3.56521 2.7212 0.844009 6.078 0.844009C9.43479 0.844009 12.156 3.56521 12.156 6.922C12.156 10.2788 9.43479 13 6.078 13ZM8.94872 4.50176C8.9097 4.45601 7.97389 3.38098 6.25649 3.38098C4.18085 3.38098 2.71547 4.93136 2.71547 6.94855C2.71547 8.94112 4.23506 10.463 6.23879 10.463C7.87978 10.463 8.73776 9.54851 8.77346 9.50956C8.81746 9.46161 8.84431 9.40041 8.8498 9.33555C8.85529 9.2707 8.83912 9.20586 8.80381 9.15118L8.25531 8.30186C8.15608 8.14826 7.94225 8.1217 7.80843 8.24561C7.80272 8.25086 7.15826 8.83086 6.29188 8.83086C5.16166 8.83086 4.48034 8.00801 4.48034 6.96624C4.48034 5.99567 5.10564 5.01315 6.30072 5.01315C7.24911 5.01315 7.90061 5.70766 7.90708 5.71469C8.03286 5.85108 8.25164 5.83804 8.36067 5.68888L8.96227 4.8661C9.00132 4.81269 9.02122 4.74769 9.01876 4.68158C9.0163 4.61547 8.99162 4.55212 8.94872 4.50176Z" fill="black"/>
</svg>
