<svg width="20" height="20" viewBox="0 0 20 20" fill="none" xmlns="http://www.w3.org/2000/svg">
<path d="M15.006 0C15.691 0 16.3362 0.131422 16.9415 0.394266C17.5468 0.65711 18.0765 1.01553 18.5305 1.46954C18.9845 1.92354 19.3429 2.45321 19.6058 3.05855C19.8686 3.66389 20 4.30905 20 4.99404V14.9821C20 15.6671 19.8686 16.3162 19.6058 16.9295C19.3429 17.5428 18.9845 18.0765 18.5305 18.5305C18.0765 18.9845 17.5468 19.3429 16.9415 19.6058C16.3362 19.8686 15.691 20 15.006 20H4.99404C4.30905 20 3.66389 19.8686 3.05855 19.6058C2.45321 19.3429 1.92354 18.9845 1.46954 18.5305C1.01553 18.0765 0.65711 17.5428 0.394266 16.9295C0.131422 16.3162 0 15.6671 0 14.9821V4.99404C0 4.30905 0.131422 3.66389 0.394266 3.05855C0.65711 2.45321 1.01553 1.92354 1.46954 1.46954C1.92354 1.01553 2.45321 0.65711 3.05855 0.394266C3.66389 0.131422 4.30905 0 4.99404 0H15.006ZM13.7396 4.37277H11.6368C11.2226 4.37277 10.8403 4.44445 10.4899 4.58782C10.1394 4.73119 9.83674 4.91837 9.58186 5.14935C9.32698 5.38034 9.12387 5.64716 8.97254 5.94983C8.82121 6.2525 8.74554 6.55517 8.74554 6.85784V8.12427H6.88173V10.6093H8.74554V15.6273H11.2545V10.6093H13.1183V8.12427H11.2545V7.503C11.2545 7.29591 11.3302 7.13661 11.4815 7.0251C11.6328 6.9136 11.7643 6.85784 11.8758 6.85784H13.7396V4.37277Z" fill="black"/>
</svg>
