<svg width="16" height="16" viewBox="0 0 16 16" fill="none" xmlns="http://www.w3.org/2000/svg">
<path fill-rule="evenodd" clip-rule="evenodd" d="M3.84484 15.9248H12.355C14.3687 15.9248 16.0002 14.3264 16.0002 12.3695V7.15118C16.0002 6.11179 15.3167 4.83588 14.4422 4.24094L9.90046 1.13718C8.66582 0.291362 6.76241 0.33437 5.57186 1.23754L1.61073 4.24811C0.817029 4.85022 0.199707 6.07595 0.199707 7.05082V12.3623C0.199707 14.3264 1.8312 15.9248 3.84484 15.9248ZM7.17029 13.6665C7.17029 14.1942 7.63844 14.6318 8.20297 14.6318C8.7675 14.6318 9.23565 14.1942 9.23565 13.6665V9.80542C9.23565 9.27773 8.7675 8.84014 8.20297 8.84014C7.63844 8.84014 7.17029 9.27773 7.17029 9.80542V13.6665Z" fill="black"/>
</svg>
