<svg width="15" height="12" viewBox="0 0 15 12" fill="none" xmlns="http://www.w3.org/2000/svg">
<path d="M0.0479148 1.04843L6.32697 7.3275C6.71549 7.71602 7.33033 7.7403 7.74708 7.40035L7.82766 7.3275L14.1021 1.0531C14.1224 1.13009 14.1364 1.20964 14.1434 1.29117L14.1488 1.41488V9.90414C14.1488 10.6501 13.5716 11.2611 12.8395 11.3151L12.7339 11.319H1.41488C0.66898 11.319 0.0578931 10.7418 0.00388085 10.0097L0 9.90414V1.41488C0 1.33039 0.00740448 1.24763 0.0216014 1.16722L0.0479148 1.04843ZM12.7339 0C12.8195 0 12.9034 0.0076057 12.9848 0.02218L13.1051 0.0491882L7.07735 6.0769L1.04836 0.047936C1.12629 0.0270902 1.20687 0.0127339 1.28949 0.0054793L1.41488 0H12.7339Z" fill="#09244B"/>
</svg>
