<svg width="52" height="26" viewBox="0 0 52 26" fill="none" xmlns="http://www.w3.org/2000/svg">
<path d="M8.24593 14.7261L5.86435 26H0.638584L6.00142 0.744982H11.2272L9.17115 10.3741H19.0401L21.0962 0.744982H26.3391L20.9762 26H15.7333L18.1149 14.7261H8.24593ZM43.9566 2.69822C45.1788 4.00038 45.5043 6.01644 44.9332 8.7464C44.2936 11.7277 43.0885 13.8351 41.318 15.0687C39.5475 16.3023 37.263 16.9192 34.4645 16.9192H29.1017L27.1827 26H21.9398L27.3027 0.744982H38.3025C40.8383 0.744982 42.723 1.39606 43.9566 2.69822ZM36.5206 5.1312H31.6032L30.0269 12.5672H34.9443C36.1893 12.5672 37.2231 12.2645 38.0455 11.6591C38.8679 11.0537 39.4162 10.0943 39.6903 8.78067C39.9759 7.46709 39.8274 6.53045 39.2448 5.97075C38.6737 5.41105 37.7656 5.1312 36.5206 5.1312ZM40.6025 26L45.9653 0.744982H51.2082L45.8454 26H40.6025Z" fill="#FF3C3C"/>
</svg>
