<svg width="36" height="43" viewBox="0 0 36 43" fill="none" xmlns="http://www.w3.org/2000/svg">
<path d="M29.985 22.5531C29.966 19.0563 31.5476 16.417 34.7491 14.4732C32.9578 11.9102 30.2518 10.5 26.6788 10.2237C23.2963 9.95689 19.5994 12.196 18.2464 12.196C16.8171 12.196 13.5395 10.319 10.9669 10.319C5.65018 10.4047 0 14.559 0 23.0104C0 25.5068 0.45735 28.0857 1.37205 30.7473C2.59165 34.2441 6.99365 42.8194 11.5862 42.6765C13.9873 42.6193 15.6833 40.971 18.8085 40.971C21.8385 40.971 23.4106 42.6765 26.088 42.6765C30.7187 42.6098 34.7014 34.8158 35.8639 31.3094C29.6515 28.3843 29.985 22.7341 29.985 22.5531ZM24.5921 6.90789C27.1933 3.82078 26.9551 1.00998 26.8789 0C24.5826 0.133394 21.9242 1.56261 20.4093 3.32532C18.7418 5.21189 17.7604 7.54628 17.9701 10.176C20.4569 10.3666 22.7246 9.08984 24.5921 6.90789Z" fill="black"/>
</svg>
