<?xml version="1.0" encoding="UTF-8"?>
<svg id="b" xmlns="http://www.w3.org/2000/svg" viewBox="0 0 170.61 191.16">
    <g id="c">
        <path d="m0,153.02c46.88-29.74,93.2-59.12,140.13-88.89.33,6.79.63,12.81.91,18.84.95,20.36,1.85,40.73,2.89,61.09.12,2.3-.45,3.6-2.46,4.87-21.58,13.6-43.09,27.31-64.61,41.01-1.67,1.06-3.05,1.8-5.19.67-23.15-12.14-46.35-24.16-69.54-36.22-.52-.27-.99-.63-2.13-1.36Z" fill="#a6a6a6"/>
        <path d="m170.61,37.8c-46.71,29.64-93.09,59.07-140.1,88.9-.58-12.3-1.13-23.71-1.66-35.13-.49-10.66-.96-21.32-1.46-31.99-.2-4.34-.42-8.68-.64-13.02-.11-2.18.5-3.43,2.37-4.61C50.79,28.27,72.38,14.47,94.07.82c1.23-.78,3.53-1.12,4.74-.5.61.31,1.21.62,1.82.94,22.75,11.66,45.42,23.48,68.11,35.29.42.22.79.52,1.87,1.26Z" fill="#797979"/>
        <path d="m100.63,1.25L27.39,59.59c-.2-4.34-.42-8.68-.64-13.02-.11-2.18.5-3.43,2.37-4.61C50.79,28.27,72.38,14.47,94.07.82c1.23-.78,3.53-1.12,4.74-.5.61.31,1.21.62,1.82.94Z" fill="#ea4b3f"/>
    </g>
</svg>
