<svg width="45" height="41" viewBox="0 0 45 41" fill="none" xmlns="http://www.w3.org/2000/svg">
<rect x="2" y="0.5" width="40" height="40" fill="white"/>
<path d="M22.3871 6.5L2.77417 13.7258L22.3871 21.1667L42 13.7258L22.3871 6.5Z" stroke="#FF3C3C" stroke-width="1.5"/>
<path d="M5.87097 22.0269C4.73548 18.414 6.34408 16.1345 7.29032 15.4463L9.69892 16.3065C7.46237 16.9947 7.5914 20.2635 7.93548 21.8119C9.5871 23.2914 8.42294 24.5789 7.63441 25.0377C8.52903 30.7495 6.28674 33.7545 5.05376 34.5431L2 32.6076C4.13333 31.3345 5.46953 26.9732 5.87097 24.9517C4.21936 23.1624 5.18279 22.2563 5.87097 22.0269Z" stroke="#FF3C3C" stroke-width="1.5"/>
<path d="M10.0859 21.5967V18.5859L22.6021 23.016L35.6773 18.5859V25.6827C22.9806 31.9107 13.3261 28.2777 10.0859 25.6827C11.944 23.6182 10.8601 22.0985 10.0859 21.5967Z" stroke="#FF3C3C" stroke-width="1.5"/>
</svg>
