<svg width="40" height="41" viewBox="0 0 40 41" fill="none" xmlns="http://www.w3.org/2000/svg">
<rect y="0.5" width="40" height="40" fill="white"/>
<path d="M38.0001 36.5001C37.8848 36.5001 37.7701 36.5101 37.6574 36.5301C37.1974 35.7014 36.3221 35.1667 35.3334 35.1667C34.3447 35.1667 33.4694 35.7014 33.0094 36.5301C32.8968 36.5101 32.7821 36.5001 32.6668 36.5001C31.5641 36.5001 30.6668 37.3974 30.6668 38.5001C30.6668 38.7348 30.7147 38.9567 30.7901 39.1667H28.0001V35.1667H31.3334C31.7014 35.1667 32.0001 34.868 32.0001 34.5001V7.83339C32.0001 7.46542 31.7014 7.16675 31.3334 7.16675H11.3334C10.9654 7.16675 10.6667 7.46542 10.6667 7.83339V39.8334C10.6667 40.2014 10.9654 40.5001 11.3334 40.5001H38.0001C39.1027 40.5001 40.0001 39.6027 40.0001 38.5001C40.0001 37.3974 39.1027 36.5001 38.0001 36.5001ZM28.0001 8.50003H30.6667V12.5H28.0001V8.50003ZM28.0001 13.8334H30.6667V17.8334H28.0001V13.8334ZM28.0001 19.1667H30.6667V23.1667H28.0001V19.1667ZM28.0001 24.5001H30.6667V28.5001H28.0001V24.5001ZM28.0001 29.8334H30.6667V33.8334H28.0001V29.8334ZM14.6667 39.1667H12V35.1667H14.6667V39.1667ZM14.6667 33.8334H12V29.8334H14.6667V33.8334ZM14.6667 28.5001H12V24.5001H14.6667V28.5001ZM14.6667 23.1667H12V19.1667H14.6667V23.1667ZM14.6667 17.8334H12V13.8334H14.6667V17.8334ZM14.6667 12.5H12V8.50003H14.6667V12.5ZM18.6667 39.1667H16V35.1667H18.6667V39.1667ZM18.6667 33.8334H16V29.8334H18.6667V33.8334ZM18.6667 28.5001H16V24.5001H18.6667V28.5001ZM18.6667 23.1667H16V19.1667H18.6667V23.1667ZM18.6667 17.8334H16V13.8334H18.6667V17.8334ZM18.6667 12.5H16V8.50003H18.6667V12.5ZM22.6667 39.1667H20V35.1667H22.6667V39.1667ZM22.6667 33.8334H20V29.8334H22.6667V33.8334ZM22.6667 28.5001H20V24.5001H22.6667V28.5001ZM22.6667 23.1667H20V19.1667H22.6667V23.1667ZM22.6667 17.8334H20V13.8334H22.6667V17.8334ZM22.6667 12.5H20V8.50003H22.6667V12.5ZM26.6667 39.1667H24V35.1667H26.6667V39.1667ZM26.6667 33.8334H24V29.8334H26.6667V33.8334ZM26.6667 28.5001H24V24.5001H26.6667V28.5001ZM26.6667 23.1667H24V19.1667H26.6667V23.1667ZM26.6667 17.8334H24V13.8334H26.6667V17.8334ZM26.6667 12.5H24V8.50003H26.6667V12.5ZM38.0001 39.1667H32.6667C32.2994 39.1667 32.0001 38.8674 32.0001 38.5001C32.0001 38.1327 32.2994 37.8334 32.6667 37.8334C32.7947 37.8334 32.916 37.8701 33.028 37.9421C33.2107 38.0594 33.4387 38.0808 33.6401 37.9994C33.8414 37.9181 33.9901 37.7434 34.0387 37.5321C34.1794 36.9248 34.7121 36.5001 35.3334 36.5001C35.9548 36.5001 36.4874 36.9248 36.6281 37.5321C36.6768 37.7434 36.8255 37.9181 37.0268 37.9994C37.2281 38.0808 37.4561 38.0594 37.6388 37.9421C38.0722 37.6621 38.6675 38.0048 38.6668 38.5001C38.6667 38.8674 38.3674 39.1667 38.0001 39.1667Z" fill="#FF3C3C"/>
<path d="M14.6667 5.16665V3.16664H19.3333C19.7013 3.16664 19.9999 2.86797 19.9999 2.5V1.83336H22.6666V2.5C22.6666 2.86797 22.9653 3.16664 23.3332 3.16664H28V4.50001H16.6667C16.2987 4.50001 16 4.79868 16 5.16665C16 5.53462 16.2987 5.83329 16.6667 5.83329H33.3333V33.486C33.3333 33.8539 33.632 34.1526 34 34.1526C34.3679 34.1526 34.6666 33.8539 34.6666 33.486V5.16665C34.6666 4.79868 34.3679 4.50001 34 4.50001H29.3333V2.5C29.3333 2.13203 29.0346 1.83336 28.6667 1.83336H24V1.16664C24 0.798672 23.7014 0.5 23.3334 0.5H19.3334C18.9654 0.5 18.6667 0.798672 18.6667 1.16664V1.83328H14C13.632 1.83328 13.3334 2.13196 13.3334 2.49992V4.49993H8.66673C8.29876 4.49993 8.00009 4.7986 8.00009 5.16657V39.1666H4V36.4326C5.5193 36.1226 6.66665 34.7766 6.66665 33.1666C6.66665 33.08 6.62868 24.5 3.33329 24.5C0.0379688 24.5 0 33.08 0 33.1667C0 34.7767 1.14734 36.1227 2.66664 36.4327V39.1667H0.666641C0.298672 39.1667 0 39.4654 0 39.8333C0 40.2013 0.298672 40.5 0.666641 40.5H8.66665C9.03462 40.5 9.33329 40.2014 9.33329 39.8334V5.83337H14C14.368 5.83337 14.6667 5.53469 14.6667 5.16665ZM1.33336 33.1667C1.33336 29.8453 2.22539 25.8333 3.33336 25.8333C4.44133 25.8333 5.33337 29.8453 5.33337 33.1667C5.33337 34.2693 4.43602 35.1667 3.33336 35.1667C2.23071 35.1667 1.33336 34.2693 1.33336 33.1667Z" fill="#FF3C3C"/>
</svg>
