<svg width="40" height="41" viewBox="0 0 40 41" fill="none" xmlns="http://www.w3.org/2000/svg">
<rect y="0.5" width="40" height="40" fill="white"/>
<rect x="3.75" y="31.9646" width="32.7856" height="3.73808" stroke="#FF3C3C" stroke-width="1.5"/>
<rect x="10.4165" y="26.5833" width="19.8333" height="3.83332" stroke="#FF3C3C" stroke-width="1.5"/>
<path d="M7.32104 10.3214C7.32104 5.31141 11.3825 1.25 16.3925 1.25H23.8924C28.9024 1.25 32.9638 5.31142 32.9638 10.3214V30.4642H7.32104V10.3214Z" stroke="#FF3C3C" stroke-width="1.5"/>
<rect x="11.8452" y="14.345" width="16.3571" height="11.119" rx="1.25" stroke="#FF3C3C" stroke-width="1.5"/>
<path d="M15.6187 13.9524V26.0952" stroke="#FF3C3C" stroke-width="1.5"/>
<path d="M24.6665 13.9524V26.0952" stroke="#FF3C3C" stroke-width="1.5"/>
<path d="M12.5481 26.5715V30.9763" stroke="#FF3C3C" stroke-width="1.5"/>
<path d="M28.3569 26.5715V30.9763" stroke="#FF3C3C" stroke-width="1.5"/>
<path d="M10.7378 33.7144H30.6187" stroke="#FF3C3C" stroke-width="1.5"/>
<path d="M11.0596 38.2384C11.0596 38.9419 10.4893 39.5122 9.78577 39.5122C9.08226 39.5122 8.51196 38.9419 8.51196 38.2384C8.51196 37.5349 9.08226 36.9646 9.78577 36.9646C10.4893 36.9646 11.0596 37.5349 11.0596 38.2384Z" stroke="#FF3C3C" stroke-width="1.5"/>
<path d="M31.0596 38.4762C31.0596 39.1797 30.4893 39.75 29.7858 39.75C29.0823 39.75 28.512 39.1797 28.512 38.4762C28.512 37.7727 29.0823 37.2024 29.7858 37.2024C30.4893 37.2024 31.0596 37.7727 31.0596 38.4762Z" stroke="#FF3C3C" stroke-width="1.5"/>
<path d="M15.837 13.0832C16.1755 11.6499 17.4632 10.5833 19 10.5833H21.6666C23.2034 10.5833 24.4911 11.6499 24.8297 13.0832H15.837Z" stroke="#FF3C3C" stroke-width="1.5"/>
</svg>
