<svg width="40" height="41" viewBox="0 0 40 41" fill="none" xmlns="http://www.w3.org/2000/svg">
<rect y="0.5" width="40" height="40" fill="white"/>
<path d="M29.0062 20.68V24.5538V25.7674L30.0916 25.2247L39.2501 20.6454V35.2673H10.8721V25.0123L19.3721 20.6587V24.5538V25.802L20.4741 25.2161L29.0062 20.68Z" stroke="#FF3C3C" stroke-width="1.5"/>
<path d="M0.791801 35.2673L2.41988 5.26419C2.53447 5.26131 2.66149 5.25889 2.7996 5.25692C3.33449 5.24927 4.01956 5.24848 4.75859 5.25203C5.94943 5.25775 7.27159 5.27467 8.31332 5.29164L9.93991 35.2673H0.791801Z" stroke="#FF3C3C" stroke-width="1.5"/>
<rect x="14.5303" y="29.3284" width="4.10976" height="5.57317" stroke="#FF3C3C" stroke-width="1.5"/>
<rect x="23.0669" y="29.3284" width="4.10976" height="5.57317" stroke="#FF3C3C" stroke-width="1.5"/>
<rect x="31.6035" y="29.3284" width="4.10976" height="5.57317" stroke="#FF3C3C" stroke-width="1.5"/>
<path d="M1.34131 9.06592H9.39009" stroke="#FF3C3C" stroke-width="1.5"/>
</svg>
