<svg width="20" height="20" viewBox="0 0 20 20" fill="none" xmlns="http://www.w3.org/2000/svg">
<path d="M14.4499 0C15.1095 0 15.7307 0.126551 16.3136 0.379654C16.8965 0.632757 17.4066 0.977897 17.8438 1.41508C18.2809 1.85225 18.6261 2.36229 18.8792 2.9452C19.1323 3.5281 19.2588 4.14935 19.2588 4.80895V14.4269C19.2588 15.0865 19.1323 15.7116 18.8792 16.3021C18.6261 16.8927 18.2809 17.4066 17.8438 17.8438C17.4066 18.2809 16.8965 18.6261 16.3136 18.8792C15.7307 19.1323 15.1095 19.2588 14.4499 19.2588H4.80895C4.14935 19.2588 3.5281 19.1323 2.9452 18.8792C2.36229 18.6261 1.85225 18.2809 1.41508 17.8438C0.977897 17.4066 0.632757 16.8927 0.379654 16.3021C0.126551 15.7116 0 15.0865 0 14.4269V4.80895C0 4.14935 0.126551 3.5281 0.379654 2.9452C0.632757 2.36229 0.977897 1.85225 1.41508 1.41508C1.85225 0.977897 2.36229 0.632757 2.9452 0.379654C3.5281 0.126551 4.14935 0 4.80895 0H14.4499ZM6.62669 7.22494H4.21071V15.0481H6.62669V7.22494ZM5.43021 6.60368C5.75234 6.60368 6.03229 6.48864 6.27005 6.25854C6.50781 6.02845 6.62669 5.74467 6.62669 5.4072C6.62669 5.06973 6.50781 4.78595 6.27005 4.55585C6.03229 4.32576 5.75234 4.21071 5.43021 4.21071C5.09274 4.21071 4.80512 4.32576 4.56736 4.55585C4.32959 4.78595 4.21071 5.06973 4.21071 5.4072C4.21071 5.74467 4.32959 6.02845 4.56736 6.25854C4.80512 6.48864 5.09274 6.60368 5.43021 6.60368ZM15.0481 10.5153C15.0481 9.96305 14.8947 9.42233 14.5879 8.89312C14.2811 8.3639 13.8823 7.96124 13.3914 7.68512C12.9466 7.43969 12.4289 7.3093 11.8383 7.29396C11.2477 7.27863 10.7147 7.37833 10.2392 7.59309V7.22494H7.82318V15.0481H10.2392V10.2622L11.2286 9.77897C11.3513 9.71762 11.52 9.68694 11.7348 9.68694C11.9495 9.68694 12.1106 9.72529 12.218 9.80198C12.31 9.848 12.402 9.94771 12.4941 10.1011C12.5861 10.2545 12.6321 10.3926 12.6321 10.5153V15.0481H15.0481V10.5153Z" fill="black"/>
</svg>
