<svg width="19" height="19" viewBox="0 0 19 19" fill="none" xmlns="http://www.w3.org/2000/svg">
<path d="M14.2557 0C14.9064 0 15.5193 0.124851 16.0944 0.374552C16.6695 0.624253 17.1726 0.964755 17.6039 1.39606C18.0352 1.82736 18.3757 2.33055 18.6254 2.90562C18.8751 3.48068 19 4.09359 19 4.74433V14.233C19 14.8837 18.8751 15.5004 18.6254 16.083C18.3757 16.6657 18.0352 17.1726 17.6039 17.6039C17.1726 18.0352 16.6695 18.3757 16.0944 18.6254C15.5193 18.8751 14.9064 19 14.2557 19H4.74433C4.09359 19 3.48068 18.8751 2.90562 18.6254C2.33055 18.3757 1.82736 18.0352 1.39606 17.6039C0.964755 17.1726 0.624253 16.6657 0.374552 16.083C0.124851 15.5004 0 14.8837 0 14.233V4.74433C0 4.09359 0.124851 3.48068 0.374552 2.90562C0.624253 2.33055 0.964755 1.82736 1.39606 1.39606C1.82736 0.964755 2.33055 0.624253 2.90562 0.374552C3.48068 0.124851 4.09359 0 4.74433 0H14.2557ZM14.0287 7.15054C14.4675 6.84787 14.8534 6.4544 15.1864 5.97013C14.9745 6.06093 14.7589 6.1366 14.5394 6.19713C14.32 6.25767 14.0968 6.30307 13.8698 6.33333C14.3692 6.01553 14.7021 5.58423 14.8686 5.03943C14.4146 5.32696 13.9303 5.51613 13.4158 5.60693C12.9618 5.12266 12.3943 4.88053 11.7133 4.88053C11.3955 4.88053 11.0966 4.94106 10.8166 5.06213C10.5366 5.18319 10.2945 5.34966 10.0902 5.56153C9.8859 5.7734 9.72322 6.01932 9.60215 6.29928C9.48108 6.57925 9.42055 6.87814 9.42055 7.19594C9.42055 7.28674 9.42433 7.37376 9.4319 7.45699C9.43947 7.54022 9.45082 7.62724 9.46595 7.71804C8.51254 7.67264 7.62724 7.43429 6.81004 7.00299C5.99283 6.57168 5.29669 6.00797 4.72162 5.31183C4.50976 5.6599 4.40382 6.0458 4.40382 6.46953C4.40382 6.863 4.49841 7.2262 4.68757 7.55914C4.87674 7.89208 5.12266 8.16448 5.42533 8.37634C5.24373 8.37634 5.06591 8.34986 4.89188 8.29689C4.71784 8.24393 4.54759 8.17961 4.38112 8.10394V8.12664C4.38112 8.68658 4.55894 9.17463 4.91458 9.5908C5.27021 10.007 5.71286 10.2756 6.24253 10.3967C6.03066 10.4421 5.82636 10.4648 5.62963 10.4648H5.41398L5.19833 10.4194C5.34966 10.8885 5.61828 11.2706 6.00418 11.5657C6.39008 11.8608 6.8403 12.0159 7.35484 12.0311C6.96137 12.3337 6.51872 12.5759 6.02688 12.7575C5.53505 12.9391 5.02429 13.0299 4.49462 13.0299C4.38869 13.0299 4.29032 13.0261 4.19952 13.0185C4.10872 13.011 4.01792 12.9996 3.92712 12.9845C4.44166 13.3174 4.99781 13.5747 5.59558 13.7563C6.19335 13.9379 6.8176 14.0287 7.46834 14.0287C8.52768 14.0287 9.46595 13.8282 10.2832 13.4271C11.1004 13.0261 11.7851 12.5115 12.3375 11.8835C12.8899 11.2555 13.3098 10.5518 13.5974 9.7724C13.8849 8.99303 14.0287 8.21744 14.0287 7.44564V7.15054Z" fill="black"/>
</svg>
